<?xml version="1.0" encoding="UTF-8" standalone="no"?>
<svg
   xmlns:dc="http://purl.org/dc/elements/1.1/"
   xmlns:cc="http://creativecommons.org/ns#"
   xmlns:rdf="http://www.w3.org/1999/02/22-rdf-syntax-ns#"
   xmlns:svg="http://www.w3.org/2000/svg"
   xmlns="http://www.w3.org/2000/svg"
   viewBox="0 0 1236 281.60001"
   height="281.60001"
   width="1236"
   xml:space="preserve"
   id="svg2"
   version="1.1"><metadata
     id="metadata8"><rdf:RDF><cc:Work
         rdf:about=""><dc:format>image/svg+xml</dc:format><dc:type
           rdf:resource="http://purl.org/dc/dcmitype/StillImage" /></cc:Work></rdf:RDF></metadata><defs
     id="defs6"><clipPath
       id="clipPath20"
       clipPathUnits="userSpaceOnUse"><path
         id="path18"
         d="m 0,0.1 h 926.944 v 211 H 0 Z" /></clipPath></defs><g
     transform="matrix(1.3333333,0,0,-1.3333333,0,281.6)"
     id="g10"><g
       id="g12" /><g
       id="g14"><g
         clip-path="url(#clipPath20)"
         id="g16"><g
           transform="matrix(2,0,0,2,0.368,209.595)"
           id="g22"><path
             id="path24"
             style="fill:none;stroke:#000000;stroke-width:0.79699999;stroke-linecap:butt;stroke-linejoin:miter;stroke-miterlimit:10;stroke-dasharray:none;stroke-opacity:1"
             d="M 0,0 H 470.106" /></g><g
           transform="matrix(2,0,0,2,-297.056,-1124.005)"
           id="g26"><text
             id="text30"
             style="font-variant:normal;font-size:9.96259975px;font-family:'Nimbus Roman No9 L';-inkscape-font-specification:NimbusRomNo9L-Medi;writing-mode:lr-tb;fill:#000000;fill-opacity:1;fill-rule:nonzero;stroke:none"
             transform="matrix(1,0,0,-1,238.525,655.145)"><tspan
               id="tspan28"
               y="0"
               x="0 7.192997 11.616391 16.597692 19.267668 26.739618 31.720919 37.260124 41.135574 44.453121 48.876514 53.857815 58.281212 61.598755">Arxivabstracts</tspan></text>
</g><g
           transform="matrix(2,0,0,2,382.634,179.111)"
           id="g32"><path
             id="path34"
             style="fill:none;stroke:#000000;stroke-width:0.398;stroke-linecap:butt;stroke-linejoin:miter;stroke-miterlimit:10;stroke-dasharray:none;stroke-opacity:1"
             d="M 0,0 V 12.055" /></g><g
           transform="matrix(2,0,0,2,-297.056,-1124.005)"
           id="g36"><text
             id="text40"
             style="font-variant:normal;font-size:9.96259975px;font-family:'Nimbus Roman No9 L';-inkscape-font-specification:NimbusRomNo9L-Medi;writing-mode:lr-tb;fill:#000000;fill-opacity:1;fill-rule:nonzero;stroke:none"
             transform="matrix(1,0,0,-1,386.052,655.145)"><tspan
               id="tspan38"
               y="0"
               x="0 3.8754513 13.280146 20.473143 29.608847 33.852913 38.126869 43.10817 45.877773 50.301167 57.494164">IMDBreviews</tspan></text>
</g><g
           transform="matrix(2,0,0,2,690.2,179.111)"
           id="g42"><path
             id="path44"
             style="fill:none;stroke:#000000;stroke-width:0.398;stroke-linecap:butt;stroke-linejoin:miter;stroke-miterlimit:10;stroke-dasharray:none;stroke-opacity:1"
             d="M 0,0 V 12.055" /></g><g
           transform="matrix(2,0,0,2,-297.056,-1124.005)"
           id="g46"><text
             id="text50"
             style="font-variant:normal;font-size:9.96259975px;font-family:'Nimbus Roman No9 L';-inkscape-font-specification:NimbusRomNo9L-Medi;writing-mode:lr-tb;fill:#000000;fill-opacity:1;fill-rule:nonzero;stroke:none"
             transform="matrix(1,0,0,-1,531.277,655.145)"><tspan
               id="tspan48"
               y="0"
               x="0 6.6450543 13.838052 22.973755 26.849207 36.253902 43.446899">ACLIMDB</tspan></text>
</g><g
           transform="matrix(2,0,0,2,108.702,175.381)"
           id="g52"><path
             id="path54"
             style="fill:none;stroke:#000000;stroke-width:0.29899999;stroke-linecap:butt;stroke-linejoin:miter;stroke-miterlimit:10;stroke-dasharray:none;stroke-opacity:1"
             d="M 0,0 H 415.939" /></g><g
           transform="matrix(2,0,0,2,-297.056,-1124.005)"
           id="g56"><text
             id="text60"
             style="font-variant:normal;font-size:9.96259975px;font-family:'Nimbus Roman No9 L';-inkscape-font-specification:NimbusRomNo9L-Regu;writing-mode:lr-tb;fill:#000000;fill-opacity:1;fill-rule:nonzero;stroke:none"
             transform="matrix(1,0,0,-1,220.443,638.287)"><tspan
               id="tspan58"
               y="0"
               x="0 2.7696028 7.0435581 12.024858 14.794461 19.217855 24.199156 29.180456">lexicons</tspan></text>
</g><g
           transform="matrix(2,0,0,2,245.468,145.395)"
           id="g62"><path
             id="path64"
             style="fill:none;stroke:#000000;stroke-width:0.398;stroke-linecap:butt;stroke-linejoin:miter;stroke-miterlimit:10;stroke-dasharray:none;stroke-opacity:1"
             d="M 0,0 V 12.055" /></g><g
           transform="matrix(2,0,0,2,-297.056,-1124.005)"
           id="g66"><text
             id="text70"
             style="font-variant:normal;font-size:9.96259975px;font-family:'Nimbus Roman No9 L';-inkscape-font-specification:NimbusRomNo9L-Regu;writing-mode:lr-tb;fill:#000000;fill-opacity:1;fill-rule:nonzero;stroke:none"
             transform="matrix(1,0,0,-1,290.336,638.287)"><tspan
               id="tspan68"
               y="0"
               x="0 3.3175459 7.7409401 12.72224 17.703541 22.684839">random</tspan></text>
</g><g
           transform="matrix(2,0,0,2,382.634,145.395)"
           id="g72"><path
             id="path74"
             style="fill:none;stroke:#000000;stroke-width:0.398;stroke-linecap:butt;stroke-linejoin:miter;stroke-miterlimit:10;stroke-dasharray:none;stroke-opacity:1"
             d="M 0,0 V 12.055" /></g><g
           transform="matrix(2,0,0,2,-297.056,-1124.005)"
           id="g76"><text
             id="text80"
             style="font-variant:normal;font-size:9.96259975px;font-family:'Nimbus Roman No9 L';-inkscape-font-specification:NimbusRomNo9L-Regu;writing-mode:lr-tb;fill:#000000;fill-opacity:1;fill-rule:nonzero;stroke:none"
             transform="matrix(1,0,0,-1,361.763,638.287)"><tspan
               id="tspan78"
               y="0"
               x="0 2.7696028 7.0435581 12.024858 14.794461 19.217855 24.199156 29.180456">lexicons</tspan></text>
</g><g
           transform="matrix(2,0,0,2,536.418,145.395)"
           id="g82"><path
             id="path84"
             style="fill:none;stroke:#000000;stroke-width:0.398;stroke-linecap:butt;stroke-linejoin:miter;stroke-miterlimit:10;stroke-dasharray:none;stroke-opacity:1"
             d="M 0,0 V 12.055" /></g><g
           transform="matrix(2,0,0,2,-297.056,-1124.005)"
           id="g86"><text
             id="text90"
             style="font-variant:normal;font-size:9.96259975px;font-family:'Nimbus Roman No9 L';-inkscape-font-specification:NimbusRomNo9L-Regu;writing-mode:lr-tb;fill:#000000;fill-opacity:1;fill-rule:nonzero;stroke:none"
             transform="matrix(1,0,0,-1,439.964,638.287)"><tspan
               id="tspan88"
               y="0"
               x="0 3.3175459 7.7409401 12.72224 17.703541 22.684839">random</tspan></text>
</g><g
           transform="matrix(2,0,0,2,690.2,145.395)"
           id="g92"><path
             id="path94"
             style="fill:none;stroke:#000000;stroke-width:0.398;stroke-linecap:butt;stroke-linejoin:miter;stroke-miterlimit:10;stroke-dasharray:none;stroke-opacity:1"
             d="M 0,0 V 12.055" /></g><g
           transform="matrix(2,0,0,2,-297.056,-1124.005)"
           id="g96"><text
             id="text100"
             style="font-variant:normal;font-size:9.96259975px;font-family:'Nimbus Roman No9 L';-inkscape-font-specification:NimbusRomNo9L-Regu;writing-mode:lr-tb;fill:#000000;fill-opacity:1;fill-rule:nonzero;stroke:none"
             transform="matrix(1,0,0,-1,508.448,638.287)"><tspan
               id="tspan98"
               y="0"
               x="0 2.7696028 7.0435581 12.024858 14.794461 19.217855 24.199156 29.180456">lexicons</tspan></text>
</g><g
           transform="matrix(2,0,0,2,815.59,145.395)"
           id="g102"><path
             id="path104"
             style="fill:none;stroke:#000000;stroke-width:0.398;stroke-linecap:butt;stroke-linejoin:miter;stroke-miterlimit:10;stroke-dasharray:none;stroke-opacity:1"
             d="M 0,0 V 12.055" /></g><g
           transform="matrix(2,0,0,2,-297.056,-1124.005)"
           id="g106"><text
             id="text110"
             style="font-variant:normal;font-size:9.96259975px;font-family:'Nimbus Roman No9 L';-inkscape-font-specification:NimbusRomNo9L-Regu;writing-mode:lr-tb;fill:#000000;fill-opacity:1;fill-rule:nonzero;stroke:none"
             transform="matrix(1,0,0,-1,572.452,638.287)"><tspan
               id="tspan108"
               y="0"
               x="0 3.3175459 7.7409401 12.72224 17.703541 22.684839">random</tspan></text>
</g><g
           transform="matrix(2,0,0,2,108.702,141.665)"
           id="g112"><path
             id="path114"
             style="fill:none;stroke:#000000;stroke-width:0.29899999;stroke-linecap:butt;stroke-linejoin:miter;stroke-miterlimit:10;stroke-dasharray:none;stroke-opacity:1"
             d="M 0,0 H 415.939" /></g><g
           transform="matrix(2,0,0,2,-297.056,-1124.005)"
           id="g116"><text
             id="text120"
             style="font-variant:normal;font-size:9.96259975px;font-family:'Nimbus Roman No9 L';-inkscape-font-specification:NimbusRomNo9L-Regu;writing-mode:lr-tb;fill:#000000;fill-opacity:1;fill-rule:nonzero;stroke:none"
             transform="matrix(1,0,0,-1,209.763,621.429)"><tspan
               id="tspan118"
               y="0"
               x="0 5.7384577 9.0560036 13.479398 16.249001 38.864101 44.253868 48.677265 52.552715">TrainTest</tspan></text>
</g><g
           transform="matrix(2,0,0,2,245.468,111.681)"
           id="g122"><path
             id="path124"
             style="fill:none;stroke:#000000;stroke-width:0.398;stroke-linecap:butt;stroke-linejoin:miter;stroke-miterlimit:10;stroke-dasharray:none;stroke-opacity:1"
             d="M 0,0 V 12.055" /></g><g
           transform="matrix(2,0,0,2,-297.056,-1124.005)"
           id="g126"><text
             id="text130"
             style="font-variant:normal;font-size:9.96259975px;font-family:'Nimbus Roman No9 L';-inkscape-font-specification:NimbusRomNo9L-Regu;writing-mode:lr-tb;fill:#000000;fill-opacity:1;fill-rule:nonzero;stroke:none"
             transform="matrix(1,0,0,-1,278.346,621.429)"><tspan
               id="tspan128"
               y="0"
               x="0 5.7384577 9.0560036 13.479398 16.249001 38.864101 44.253868 48.677265 52.552715">TrainTest</tspan></text>
</g><g
           transform="matrix(2,0,0,2,382.634,111.681)"
           id="g132"><path
             id="path134"
             style="fill:none;stroke:#000000;stroke-width:0.398;stroke-linecap:butt;stroke-linejoin:miter;stroke-miterlimit:10;stroke-dasharray:none;stroke-opacity:1"
             d="M 0,0 V 12.055" /></g><g
           transform="matrix(2,0,0,2,-297.056,-1124.005)"
           id="g136"><text
             id="text140"
             style="font-variant:normal;font-size:9.96259975px;font-family:'Nimbus Roman No9 L';-inkscape-font-specification:NimbusRomNo9L-Regu;writing-mode:lr-tb;fill:#000000;fill-opacity:1;fill-rule:nonzero;stroke:none"
             transform="matrix(1,0,0,-1,351.083,621.429)"><tspan
               id="tspan138"
               y="0"
               x="0 5.7384577 9.0560036 13.479398 16.249001 43.018505 48.408272 52.831669 56.707119">TrainTest</tspan></text>
</g><g
           transform="matrix(2,0,0,2,536.418,111.681)"
           id="g142"><path
             id="path144"
             style="fill:none;stroke:#000000;stroke-width:0.398;stroke-linecap:butt;stroke-linejoin:miter;stroke-miterlimit:10;stroke-dasharray:none;stroke-opacity:1"
             d="M 0,0 V 12.055" /></g><g
           transform="matrix(2,0,0,2,-297.056,-1124.005)"
           id="g146"><text
             id="text150"
             style="font-variant:normal;font-size:9.96259975px;font-family:'Nimbus Roman No9 L';-inkscape-font-specification:NimbusRomNo9L-Regu;writing-mode:lr-tb;fill:#000000;fill-opacity:1;fill-rule:nonzero;stroke:none"
             transform="matrix(1,0,0,-1,427.975,621.429)"><tspan
               id="tspan148"
               y="0"
               x="0 5.7384577 9.0560036 13.479398 16.249001 43.018505 48.408272 52.831669 56.707119">TrainTest</tspan></text>
</g><g
           transform="matrix(2,0,0,2,690.2,111.681)"
           id="g152"><path
             id="path154"
             style="fill:none;stroke:#000000;stroke-width:0.398;stroke-linecap:butt;stroke-linejoin:miter;stroke-miterlimit:10;stroke-dasharray:none;stroke-opacity:1"
             d="M 0,0 V 12.055" /></g><g
           transform="matrix(2,0,0,2,-297.056,-1124.005)"
           id="g156"><text
             id="text160"
             style="font-variant:normal;font-size:9.96259975px;font-family:'Nimbus Roman No9 L';-inkscape-font-specification:NimbusRomNo9L-Regu;writing-mode:lr-tb;fill:#000000;fill-opacity:1;fill-rule:nonzero;stroke:none"
             transform="matrix(1,0,0,-1,499.805,621.429)"><tspan
               id="tspan158"
               y="0"
               x="0 5.7384577 9.0560036 13.479398 16.249001 33.882801 39.272568 43.695965 47.571415">TrainTest</tspan></text>
</g><g
           transform="matrix(2,0,0,2,815.59,111.681)"
           id="g162"><path
             id="path164"
             style="fill:none;stroke:#000000;stroke-width:0.398;stroke-linecap:butt;stroke-linejoin:miter;stroke-miterlimit:10;stroke-dasharray:none;stroke-opacity:1"
             d="M 0,0 V 12.055" /></g><g
           transform="matrix(2,0,0,2,-297.056,-1124.005)"
           id="g166"><text
             id="text170"
             style="font-variant:normal;font-size:9.96259975px;font-family:'Nimbus Roman No9 L';-inkscape-font-specification:NimbusRomNo9L-Regu;writing-mode:lr-tb;fill:#000000;fill-opacity:1;fill-rule:nonzero;stroke:none"
             transform="matrix(1,0,0,-1,562.5,621.429)"><tspan
               id="tspan168"
               y="0"
               x="0 5.7384577 9.0560036 13.479398 16.249001 33.882801 39.272568 43.695965 47.571415">TrainTest</tspan></text>
</g><g
           transform="matrix(2,0,0,2,0.368,107.751)"
           id="g172"><path
             id="path174"
             style="fill:none;stroke:#000000;stroke-width:0.498;stroke-linecap:butt;stroke-linejoin:miter;stroke-miterlimit:10;stroke-dasharray:none;stroke-opacity:1"
             d="M 0,0 H 470.106" /></g><g
           transform="matrix(2,0,0,2,-297.056,-1124.005)"
           id="g176"><text
             id="text180"
             style="font-variant:normal;font-size:9.96259975px;font-family:'Nimbus Roman No9 L';-inkscape-font-specification:NimbusRomNo9L-Regu;writing-mode:lr-tb;fill:#000000;fill-opacity:1;fill-rule:nonzero;stroke:none"
             transform="matrix(1,0,0,-1,155.238,604.472)"><tspan
               id="tspan178"
               y="0"
               x="0 7.4719501 11.895345 14.664948 19.088341 22.963793 26.839245 31.262638">#classes</tspan></text>
</g><g
           transform="matrix(2,0,0,2,-297.056,-1124.005)"
           id="g182"><text
             id="text186"
             style="font-variant:normal;font-size:9.96259975px;font-family:'Nimbus Roman No9 L';-inkscape-font-specification:NimbusRomNo9L-Regu;writing-mode:lr-tb;fill:#000000;fill-opacity:1;fill-rule:nonzero;stroke:none"
             transform="matrix(1,0,0,-1,216.049,604.373)"><tspan
               id="tspan184"
               y="0"
               x="0 4.9812999 9.9625998 34.092018 39.073318 44.054619">127127</tspan></text>
</g><g
           transform="matrix(2,0,0,2,245.468,77.567)"
           id="g188"><path
             id="path190"
             style="fill:none;stroke:#000000;stroke-width:0.398;stroke-linecap:butt;stroke-linejoin:miter;stroke-miterlimit:10;stroke-dasharray:none;stroke-opacity:1"
             d="M 0,0 V 12.055" /></g><g
           transform="matrix(2,0,0,2,-297.056,-1124.005)"
           id="g192"><text
             id="text196"
             style="font-variant:normal;font-size:9.96259975px;font-family:'Nimbus Roman No9 L';-inkscape-font-specification:NimbusRomNo9L-Regu;writing-mode:lr-tb;fill:#000000;fill-opacity:1;fill-rule:nonzero;stroke:none"
             transform="matrix(1,0,0,-1,284.632,604.373)"><tspan
               id="tspan194"
               y="0"
               x="0 4.9812999 9.9625998 34.092018 39.073318 44.054619">127127</tspan></text>
</g><g
           transform="matrix(2,0,0,2,382.634,77.567)"
           id="g198"><path
             id="path200"
             style="fill:none;stroke:#000000;stroke-width:0.398;stroke-linecap:butt;stroke-linejoin:miter;stroke-miterlimit:10;stroke-dasharray:none;stroke-opacity:1"
             d="M 0,0 V 12.055" /></g><g
           transform="matrix(2,0,0,2,-297.056,-1124.005)"
           id="g202"><text
             id="text206"
             style="font-variant:normal;font-size:9.96259975px;font-family:'Nimbus Roman No9 L';-inkscape-font-specification:NimbusRomNo9L-Regu;writing-mode:lr-tb;fill:#000000;fill-opacity:1;fill-rule:nonzero;stroke:none"
             transform="matrix(1,0,0,-1,367.332,604.373)"><tspan
               id="tspan204"
               y="0"
               x="0 38.246422">55</tspan></text>
</g><g
           transform="matrix(2,0,0,2,536.418,77.567)"
           id="g208"><path
             id="path210"
             style="fill:none;stroke:#000000;stroke-width:0.398;stroke-linecap:butt;stroke-linejoin:miter;stroke-miterlimit:10;stroke-dasharray:none;stroke-opacity:1"
             d="M 0,0 V 12.055" /></g><g
           transform="matrix(2,0,0,2,-297.056,-1124.005)"
           id="g212"><text
             id="text216"
             style="font-variant:normal;font-size:9.96259975px;font-family:'Nimbus Roman No9 L';-inkscape-font-specification:NimbusRomNo9L-Regu;writing-mode:lr-tb;fill:#000000;fill-opacity:1;fill-rule:nonzero;stroke:none"
             transform="matrix(1,0,0,-1,444.223,604.373)"><tspan
               id="tspan214"
               y="0"
               x="0 38.246422">55</tspan></text>
</g><g
           transform="matrix(2,0,0,2,690.2,77.567)"
           id="g218"><path
             id="path220"
             style="fill:none;stroke:#000000;stroke-width:0.398;stroke-linecap:butt;stroke-linejoin:miter;stroke-miterlimit:10;stroke-dasharray:none;stroke-opacity:1"
             d="M 0,0 V 12.055" /></g><g
           transform="matrix(2,0,0,2,-297.056,-1124.005)"
           id="g222"><text
             id="text226"
             style="font-variant:normal;font-size:9.96259975px;font-family:'Nimbus Roman No9 L';-inkscape-font-specification:NimbusRomNo9L-Regu;writing-mode:lr-tb;fill:#000000;fill-opacity:1;fill-rule:nonzero;stroke:none"
             transform="matrix(1,0,0,-1,516.054,604.373)"><tspan
               id="tspan224"
               y="0"
               x="0 29.110718">22</tspan></text>
</g><g
           transform="matrix(2,0,0,2,815.59,77.567)"
           id="g228"><path
             id="path230"
             style="fill:none;stroke:#000000;stroke-width:0.398;stroke-linecap:butt;stroke-linejoin:miter;stroke-miterlimit:10;stroke-dasharray:none;stroke-opacity:1"
             d="M 0,0 V 12.055" /></g><g
           transform="matrix(2,0,0,2,-297.056,-1124.005)"
           id="g232"><text
             id="text236"
             style="font-variant:normal;font-size:9.96259975px;font-family:'Nimbus Roman No9 L';-inkscape-font-specification:NimbusRomNo9L-Regu;writing-mode:lr-tb;fill:#000000;fill-opacity:1;fill-rule:nonzero;stroke:none"
             transform="matrix(1,0,0,-1,578.748,604.373)"><tspan
               id="tspan234"
               y="0"
               x="0 29.110718">22</tspan></text>
</g><g
           transform="matrix(2,0,0,2,-297.056,-1124.005)"
           id="g238"><text
             id="text242"
             style="font-variant:normal;font-size:9.96259975px;font-family:'Nimbus Roman No9 L';-inkscape-font-specification:NimbusRomNo9L-Regu;writing-mode:lr-tb;fill:#000000;fill-opacity:1;fill-rule:nonzero;stroke:none"
             transform="matrix(1,0,0,-1,151.098,592.417)"><tspan
               id="tspan240"
               y="0"
               x="0 4.2241426 9.2054424 14.186743 19.168043 26.261414 31.242714 34.560261 39.541561">avg.words</tspan></text>
</g><g
           transform="matrix(2,0,0,2,-297.056,-1124.005)"
           id="g244"><text
             id="text248"
             style="font-variant:normal;font-size:9.96259975px;font-family:'Nimbus Roman No9 L';-inkscape-font-specification:NimbusRomNo9L-Regu;writing-mode:lr-tb;fill:#000000;fill-opacity:1;fill-rule:nonzero;stroke:none"
             transform="matrix(1,0,0,-1,216.049,592.318)"><tspan
               id="tspan246"
               y="0"
               x="0 4.9812999 9.9625998 34.092018 39.073318 44.054619">162140</tspan></text>
</g><g
           transform="matrix(2,0,0,2,245.468,53.457)"
           id="g250"><path
             id="path252"
             style="fill:none;stroke:#000000;stroke-width:0.398;stroke-linecap:butt;stroke-linejoin:miter;stroke-miterlimit:10;stroke-dasharray:none;stroke-opacity:1"
             d="M 0,0 V 12.055" /></g><g
           transform="matrix(2,0,0,2,-297.056,-1124.005)"
           id="g254"><text
             id="text258"
             style="font-variant:normal;font-size:9.96259975px;font-family:'Nimbus Roman No9 L';-inkscape-font-specification:NimbusRomNo9L-Regu;writing-mode:lr-tb;fill:#000000;fill-opacity:1;fill-rule:nonzero;stroke:none"
             transform="matrix(1,0,0,-1,284.632,592.318)"><tspan
               id="tspan256"
               y="0"
               x="0 4.9812999 9.9625998 34.092018 39.073318 44.054619">153153</tspan></text>
</g><g
           transform="matrix(2,0,0,2,382.634,53.457)"
           id="g260"><path
             id="path262"
             style="fill:none;stroke:#000000;stroke-width:0.398;stroke-linecap:butt;stroke-linejoin:miter;stroke-miterlimit:10;stroke-dasharray:none;stroke-opacity:1"
             d="M 0,0 V 12.055" /></g><g
           transform="matrix(2,0,0,2,-297.056,-1124.005)"
           id="g264"><text
             id="text268"
             style="font-variant:normal;font-size:9.96259975px;font-family:'Nimbus Roman No9 L';-inkscape-font-specification:NimbusRomNo9L-Regu;writing-mode:lr-tb;fill:#000000;fill-opacity:1;fill-rule:nonzero;stroke:none"
             transform="matrix(1,0,0,-1,357.369,592.318)"><tspan
               id="tspan266"
               y="0"
               x="0 4.9812999 9.9625998 38.246422 43.227722 48.209023">299252</tspan></text>
</g><g
           transform="matrix(2,0,0,2,536.418,53.457)"
           id="g270"><path
             id="path272"
             style="fill:none;stroke:#000000;stroke-width:0.398;stroke-linecap:butt;stroke-linejoin:miter;stroke-miterlimit:10;stroke-dasharray:none;stroke-opacity:1"
             d="M 0,0 V 12.055" /></g><g
           transform="matrix(2,0,0,2,-297.056,-1124.005)"
           id="g274"><text
             id="text278"
             style="font-variant:normal;font-size:9.96259975px;font-family:'Nimbus Roman No9 L';-inkscape-font-specification:NimbusRomNo9L-Regu;writing-mode:lr-tb;fill:#000000;fill-opacity:1;fill-rule:nonzero;stroke:none"
             transform="matrix(1,0,0,-1,434.261,592.318)"><tspan
               id="tspan276"
               y="0"
               x="0 4.9812999 9.9625998 38.246422 43.227722 48.209023">278281</tspan></text>
</g><g
           transform="matrix(2,0,0,2,690.2,53.457)"
           id="g280"><path
             id="path282"
             style="fill:none;stroke:#000000;stroke-width:0.398;stroke-linecap:butt;stroke-linejoin:miter;stroke-miterlimit:10;stroke-dasharray:none;stroke-opacity:1"
             d="M 0,0 V 12.055" /></g><g
           transform="matrix(2,0,0,2,-297.056,-1124.005)"
           id="g284"><text
             id="text288"
             style="font-variant:normal;font-size:9.96259975px;font-family:'Nimbus Roman No9 L';-inkscape-font-specification:NimbusRomNo9L-Regu;writing-mode:lr-tb;fill:#000000;fill-opacity:1;fill-rule:nonzero;stroke:none"
             transform="matrix(1,0,0,-1,506.091,592.318)"><tspan
               id="tspan286"
               y="0"
               x="0 4.9812999 9.9625998 29.110718 34.092018 39.073318">290254</tspan></text>
</g><g
           transform="matrix(2,0,0,2,815.59,53.457)"
           id="g290"><path
             id="path292"
             style="fill:none;stroke:#000000;stroke-width:0.398;stroke-linecap:butt;stroke-linejoin:miter;stroke-miterlimit:10;stroke-dasharray:none;stroke-opacity:1"
             d="M 0,0 V 12.055" /></g><g
           transform="matrix(2,0,0,2,-297.056,-1124.005)"
           id="g294"><text
             id="text298"
             style="font-variant:normal;font-size:9.96259975px;font-family:'Nimbus Roman No9 L';-inkscape-font-specification:NimbusRomNo9L-Regu;writing-mode:lr-tb;fill:#000000;fill-opacity:1;fill-rule:nonzero;stroke:none"
             transform="matrix(1,0,0,-1,568.786,592.318)"><tspan
               id="tspan296"
               y="0"
               x="0 4.9812999 9.9625998 29.110718 34.092018 39.073318">234228</tspan></text>
</g><g
           transform="matrix(2,0,0,2,-297.056,-1124.005)"
           id="g300"><text
             id="text304"
             style="font-variant:normal;font-size:9.96259975px;font-family:'Nimbus Roman No9 L';-inkscape-font-specification:NimbusRomNo9L-Regu;writing-mode:lr-tb;fill:#000000;fill-opacity:1;fill-rule:nonzero;stroke:none"
             transform="matrix(1,0,0,-1,155.517,580.363)"><tspan
               id="tspan302"
               y="0"
               x="0 4.9812999 9.4046946 12.174297 19.088341 22.963793 25.733397 30.15679">datasize</tspan></text>
</g><g
           transform="matrix(2,0,0,2,-297.056,-1124.005)"
           id="g306"><text
             id="text310"
             style="font-variant:normal;font-size:9.96259975px;font-family:'Nimbus Roman No9 L';-inkscape-font-specification:NimbusRomNo9L-Regu;writing-mode:lr-tb;fill:#000000;fill-opacity:1;fill-rule:nonzero;stroke:none"
             transform="matrix(1,0,0,-1,208.856,580.263)"><tspan
               id="tspan308"
               y="0"
               x="0 4.9812999 9.9625998 14.9439 34.092018 39.073318 44.054619 49.035915">668K438K</tspan></text>
</g><g
           transform="matrix(2,0,0,2,245.468,29.347)"
           id="g312"><path
             id="path314"
             style="fill:none;stroke:#000000;stroke-width:0.398;stroke-linecap:butt;stroke-linejoin:miter;stroke-miterlimit:10;stroke-dasharray:none;stroke-opacity:1"
             d="M 0,0 V 12.055" /></g><g
           transform="matrix(2,0,0,2,-297.056,-1124.005)"
           id="g316"><text
             id="text320"
             style="font-variant:normal;font-size:9.96259975px;font-family:'Nimbus Roman No9 L';-inkscape-font-specification:NimbusRomNo9L-Regu;writing-mode:lr-tb;fill:#000000;fill-opacity:1;fill-rule:nonzero;stroke:none"
             transform="matrix(1,0,0,-1,277.439,580.263)"><tspan
               id="tspan318"
               y="0"
               x="0 4.9812999 9.9625998 14.9439 34.092018 39.073318 44.054619 49.035915">664K443K</tspan></text>
</g><g
           transform="matrix(2,0,0,2,382.634,29.347)"
           id="g322"><path
             id="path324"
             style="fill:none;stroke:#000000;stroke-width:0.398;stroke-linecap:butt;stroke-linejoin:miter;stroke-miterlimit:10;stroke-dasharray:none;stroke-opacity:1"
             d="M 0,0 V 12.055" /></g><g
           transform="matrix(2,0,0,2,-297.056,-1124.005)"
           id="g326"><text
             id="text330"
             style="font-variant:normal;font-size:9.96259975px;font-family:'Nimbus Roman No9 L';-inkscape-font-specification:NimbusRomNo9L-Regu;writing-mode:lr-tb;fill:#000000;fill-opacity:1;fill-rule:nonzero;stroke:none"
             transform="matrix(1,0,0,-1,346.022,580.263)"><tspan
               id="tspan328"
               y="0"
               x="0 4.9812999 7.4719501 12.45325 17.434549 38.246422 43.227722 45.718372 50.699673 55.680973">1.48M1.07M</tspan></text>
</g><g
           transform="matrix(2,0,0,2,536.418,29.347)"
           id="g332"><path
             id="path334"
             style="fill:none;stroke:#000000;stroke-width:0.398;stroke-linecap:butt;stroke-linejoin:miter;stroke-miterlimit:10;stroke-dasharray:none;stroke-opacity:1"
             d="M 0,0 V 12.055" /></g><g
           transform="matrix(2,0,0,2,-297.056,-1124.005)"
           id="g336"><text
             id="text340"
             style="font-variant:normal;font-size:9.96259975px;font-family:'Nimbus Roman No9 L';-inkscape-font-specification:NimbusRomNo9L-Regu;writing-mode:lr-tb;fill:#000000;fill-opacity:1;fill-rule:nonzero;stroke:none"
             transform="matrix(1,0,0,-1,422.913,580.263)"><tspan
               id="tspan338"
               y="0"
               x="0 4.9812999 7.4719501 12.45325 17.434549 38.246422 43.227722 45.718372 50.699673 55.680973">1.49M1.07M</tspan></text>
</g><g
           transform="matrix(2,0,0,2,690.2,29.347)"
           id="g342"><path
             id="path344"
             style="fill:none;stroke:#000000;stroke-width:0.398;stroke-linecap:butt;stroke-linejoin:miter;stroke-miterlimit:10;stroke-dasharray:none;stroke-opacity:1"
             d="M 0,0 V 12.055" /></g><g
           transform="matrix(2,0,0,2,-297.056,-1124.005)"
           id="g346"><text
             id="text350"
             style="font-variant:normal;font-size:9.96259975px;font-family:'Nimbus Roman No9 L';-inkscape-font-specification:NimbusRomNo9L-Regu;writing-mode:lr-tb;fill:#000000;fill-opacity:1;fill-rule:nonzero;stroke:none"
             transform="matrix(1,0,0,-1,503.879,580.263)"><tspan
               id="tspan348"
               y="0"
               x="0 4.9812999 9.9625998 29.110718 34.092018 39.073318">23K26K</tspan></text>
</g><g
           transform="matrix(2,0,0,2,815.59,29.347)"
           id="g352"><path
             id="path354"
             style="fill:none;stroke:#000000;stroke-width:0.398;stroke-linecap:butt;stroke-linejoin:miter;stroke-miterlimit:10;stroke-dasharray:none;stroke-opacity:1"
             d="M 0,0 V 12.055" /></g><g
           transform="matrix(2,0,0,2,-297.056,-1124.005)"
           id="g356"><text
             id="text360"
             style="font-variant:normal;font-size:9.96259975px;font-family:'Nimbus Roman No9 L';-inkscape-font-specification:NimbusRomNo9L-Regu;writing-mode:lr-tb;fill:#000000;fill-opacity:1;fill-rule:nonzero;stroke:none"
             transform="matrix(1,0,0,-1,566.574,580.263)"><tspan
               id="tspan358"
               y="0"
               x="0 4.9812999 9.9625998 29.110718 34.092018 39.073318">25K25K</tspan></text>
</g><g
           transform="matrix(2,0,0,2,-297.056,-1124.005)"
           id="g362"><text
             id="text366"
             style="font-variant:normal;font-size:9.96259975px;font-family:'Nimbus Roman No9 L';-inkscape-font-specification:NimbusRomNo9L-Regu;writing-mode:lr-tb;fill:#000000;fill-opacity:1;fill-rule:nonzero;stroke:none"
             transform="matrix(1,0,0,-1,150.874,568.308)"><tspan
               id="tspan364"
               y="0"
               x="0 4.7820482 9.7633476 14.186743 18.610136 23.392185 28.373486 31.143087 35.566483 38.884029">vocabulary</tspan></text>
</g><g
           transform="matrix(2,0,0,2,-297.056,-1124.005)"
           id="g368"><text
             id="text372"
             style="font-variant:normal;font-size:9.96259975px;font-family:'Nimbus Roman No9 L';-inkscape-font-specification:NimbusRomNo9L-Regu;writing-mode:lr-tb;fill:#000000;fill-opacity:1;fill-rule:nonzero;stroke:none"
             transform="matrix(1,0,0,-1,208.856,568.208)"><tspan
               id="tspan370"
               y="0"
               x="0 4.9812999 9.9625998 14.9439 34.092018 39.073318 44.054619 49.035915">297K238K</tspan></text>
</g><g
           transform="matrix(2,0,0,2,245.468,5.239)"
           id="g374"><path
             id="path376"
             style="fill:none;stroke:#000000;stroke-width:0.398;stroke-linecap:butt;stroke-linejoin:miter;stroke-miterlimit:10;stroke-dasharray:none;stroke-opacity:1"
             d="M 0,0 V 12.055" /></g><g
           transform="matrix(2,0,0,2,-297.056,-1124.005)"
           id="g378"><text
             id="text382"
             style="font-variant:normal;font-size:9.96259975px;font-family:'Nimbus Roman No9 L';-inkscape-font-specification:NimbusRomNo9L-Regu;writing-mode:lr-tb;fill:#000000;fill-opacity:1;fill-rule:nonzero;stroke:none"
             transform="matrix(1,0,0,-1,277.439,568.208)"><tspan
               id="tspan380"
               y="0"
               x="0 4.9812999 9.9625998 14.9439 34.092018 39.073318 44.054619 49.035915">301K244K</tspan></text>
</g><g
           transform="matrix(2,0,0,2,382.634,5.239)"
           id="g384"><path
             id="path386"
             style="fill:none;stroke:#000000;stroke-width:0.398;stroke-linecap:butt;stroke-linejoin:miter;stroke-miterlimit:10;stroke-dasharray:none;stroke-opacity:1"
             d="M 0,0 V 12.055" /></g><g
           transform="matrix(2,0,0,2,-297.056,-1124.005)"
           id="g388"><text
             id="text392"
             style="font-variant:normal;font-size:9.96259975px;font-family:'Nimbus Roman No9 L';-inkscape-font-specification:NimbusRomNo9L-Regu;writing-mode:lr-tb;fill:#000000;fill-opacity:1;fill-rule:nonzero;stroke:none"
             transform="matrix(1,0,0,-1,350.176,568.208)"><tspan
               id="tspan390"
               y="0"
               x="0 4.9812999 9.9625998 14.9439 38.246422 43.227722 48.209023 53.190323">590K509K</tspan></text>
</g><g
           transform="matrix(2,0,0,2,536.418,5.239)"
           id="g394"><path
             id="path396"
             style="fill:none;stroke:#000000;stroke-width:0.398;stroke-linecap:butt;stroke-linejoin:miter;stroke-miterlimit:10;stroke-dasharray:none;stroke-opacity:1"
             d="M 0,0 V 12.055" /></g><g
           transform="matrix(2,0,0,2,-297.056,-1124.005)"
           id="g398"><text
             id="text402"
             style="font-variant:normal;font-size:9.96259975px;font-family:'Nimbus Roman No9 L';-inkscape-font-specification:NimbusRomNo9L-Regu;writing-mode:lr-tb;fill:#000000;fill-opacity:1;fill-rule:nonzero;stroke:none"
             transform="matrix(1,0,0,-1,427.068,568.208)"><tspan
               id="tspan400"
               y="0"
               x="0 4.9812999 9.9625998 14.9439 38.246422 43.227722 48.209023 53.190323">601K505K</tspan></text>
</g><g
           transform="matrix(2,0,0,2,690.2,5.239)"
           id="g404"><path
             id="path406"
             style="fill:none;stroke:#000000;stroke-width:0.398;stroke-linecap:butt;stroke-linejoin:miter;stroke-miterlimit:10;stroke-dasharray:none;stroke-opacity:1"
             d="M 0,0 V 12.055" /></g><g
           transform="matrix(2,0,0,2,-297.056,-1124.005)"
           id="g408"><text
             id="text412"
             style="font-variant:normal;font-size:9.96259975px;font-family:'Nimbus Roman No9 L';-inkscape-font-specification:NimbusRomNo9L-Regu;writing-mode:lr-tb;fill:#000000;fill-opacity:1;fill-rule:nonzero;stroke:none"
             transform="matrix(1,0,0,-1,503.879,568.208)"><tspan
               id="tspan410"
               y="0"
               x="0 4.9812999 9.9625998 29.110718 34.092018 39.073318">75K78K</tspan></text>
</g><g
           transform="matrix(2,0,0,2,815.59,5.239)"
           id="g414"><path
             id="path416"
             style="fill:none;stroke:#000000;stroke-width:0.398;stroke-linecap:butt;stroke-linejoin:miter;stroke-miterlimit:10;stroke-dasharray:none;stroke-opacity:1"
             d="M 0,0 V 12.055" /></g><g
           transform="matrix(2,0,0,2,-297.056,-1124.005)"
           id="g418"><text
             id="text422"
             style="font-variant:normal;font-size:9.96259975px;font-family:'Nimbus Roman No9 L';-inkscape-font-specification:NimbusRomNo9L-Regu;writing-mode:lr-tb;fill:#000000;fill-opacity:1;fill-rule:nonzero;stroke:none"
             transform="matrix(1,0,0,-1,566.574,568.208)"><tspan
               id="tspan420"
               y="0"
               x="0 4.9812999 9.9625998 29.110718 34.092018 39.073318">75K74K</tspan></text>
</g><g
           transform="matrix(2,0,0,2,0.368,1.009)"
           id="g424"><path
             id="path426"
             style="fill:none;stroke:#000000;stroke-width:0.79699999;stroke-linecap:butt;stroke-linejoin:miter;stroke-miterlimit:10;stroke-dasharray:none;stroke-opacity:1"
             d="M 0,0 H 470.106" /></g></g></g></g></svg>